<svg width="150" height="40" viewBox="0 0 150 40" fill="none" xmlns="http://www.w3.org/2000/svg">
<g clip-path="url(#clip0_1_2)">
<path d="M44.2939 13.3853H47.2236C48.0293 13.3853 48.839 13.3934 49.6528 13.4097C50.4748 13.4259 51.2601 13.4585 52.0088 13.5073C52.7656 13.548 53.4614 13.605 54.0962 13.6782C54.731 13.7515 55.264 13.8451 55.6953 13.959C56.3301 14.1462 56.9201 14.4391 57.4653 14.8379C58.0187 15.2367 58.5314 15.7046 59.0034 16.2417C59.1906 16.4614 59.3981 16.7585 59.626 17.1328C59.862 17.499 60.0817 17.9222 60.2852 18.4023C60.4967 18.8825 60.6717 19.4033 60.8101 19.9648C60.9484 20.5264 61.0176 21.1082 61.0176 21.7104C61.0176 23.1346 60.749 24.4204 60.2119 25.5679C59.6829 26.7072 58.9139 27.757 57.9048 28.7173C57.856 28.7417 57.7827 28.7905 57.6851 28.8638C57.5955 28.937 57.4979 29.0184 57.3921 29.1079C57.2863 29.1893 57.1846 29.2666 57.0869 29.3398C56.9974 29.4131 56.9323 29.466 56.8916 29.4985C56.7044 29.6532 56.4725 29.7996 56.1958 29.938C55.9272 30.0763 55.6302 30.2025 55.3047 30.3164C54.9792 30.4303 54.6374 30.5361 54.2793 30.6338C53.9294 30.7314 53.5835 30.8128 53.2417 30.8779C52.8999 30.943 52.5785 30.9919 52.2773 31.0244C51.9762 31.0651 51.7158 31.0854 51.4961 31.0854C51.1787 31.0854 50.8532 31.0692 50.5195 31.0366C50.1859 31.0122 49.7993 31 49.3599 31H43.9033C43.6429 31 43.5127 30.9146 43.5127 30.7437C43.5127 30.646 43.5981 30.5687 43.769 30.5117C43.9399 30.4466 44.1475 30.3978 44.3916 30.3652C44.6357 30.3245 44.8962 30.292 45.1729 30.2676C45.4495 30.235 45.6978 30.1984 45.9175 30.1577C46.0802 30.1252 46.2023 30.0804 46.2837 30.0234C46.3732 29.9583 46.4342 29.8892 46.4668 29.8159C46.5075 29.645 46.5319 29.5107 46.54 29.4131C46.5482 29.3073 46.5522 29.1893 46.5522 29.0591V14.2153C46.5278 14.1584 46.422 14.1055 46.2349 14.0566C46.0558 14.0078 45.8361 13.9631 45.5757 13.9224C45.3234 13.8817 45.0508 13.841 44.7578 13.8003C44.4648 13.7596 44.1963 13.7189 43.9521 13.6782C43.8219 13.6619 43.7568 13.6213 43.7568 13.5562C43.7568 13.5399 43.8016 13.4992 43.8911 13.4341C43.9237 13.4178 43.9684 13.4056 44.0254 13.3975C44.0905 13.3893 44.18 13.3853 44.2939 13.3853ZM49.3599 14.2764V21.1367C49.3599 21.6331 49.3436 22.1133 49.311 22.5771C49.2866 23.0329 49.2581 23.4805 49.2256 23.9199C49.2012 24.3594 49.1727 24.7988 49.1401 25.2383C49.1157 25.6696 49.1035 26.1131 49.1035 26.5688C49.1035 27.5942 49.1605 28.3836 49.2744 28.937C49.3965 29.4823 49.5633 29.8729 49.7749 30.1089C49.8726 30.2391 50.0109 30.3245 50.1899 30.3652C50.3771 30.3978 50.5439 30.4141 50.6904 30.4141C51.3252 30.4141 51.9274 30.3327 52.4971 30.1699C53.0667 30.0072 53.5916 29.7834 54.0718 29.4985C54.5601 29.2137 54.9954 28.88 55.3779 28.4976C55.7686 28.1151 56.0981 27.7041 56.3667 27.2646C56.9282 26.3613 57.3473 25.4539 57.624 24.5425C57.9007 23.6229 58.0391 22.748 58.0391 21.918C58.0391 21.4622 58.0024 21.0269 57.9292 20.6118C57.8641 20.1968 57.7827 19.8143 57.6851 19.4644C57.5874 19.1144 57.4816 18.8052 57.3677 18.5366C57.2537 18.2681 57.152 18.0565 57.0625 17.9019C56.9404 17.6821 56.7695 17.4176 56.5498 17.1084C56.3301 16.791 56.0452 16.4655 55.6953 16.1318C55.3535 15.79 54.9344 15.4604 54.438 15.1431C53.9416 14.8175 53.3516 14.5368 52.668 14.3008C52.2448 14.1462 51.8216 14.0404 51.3984 13.9834C50.9753 13.9264 50.5114 13.8979 50.0068 13.8979C49.958 13.8979 49.8929 13.902 49.8115 13.9102C49.7383 13.9183 49.6691 13.9346 49.604 13.959C49.5389 13.9834 49.4819 14.0241 49.4331 14.0811C49.3843 14.1299 49.3599 14.195 49.3599 14.2764ZM67.1636 19.9771V29.5474C67.1636 29.5881 67.1676 29.6491 67.1758 29.7305C67.1839 29.8118 67.1961 29.8973 67.2124 29.9868C67.2368 30.0682 67.2694 30.1414 67.3101 30.2065C67.3507 30.2716 67.4077 30.3042 67.481 30.3042H68.8237C68.9132 30.3042 68.9865 30.3408 69.0435 30.4141C69.1086 30.4873 69.1411 30.5687 69.1411 30.6582C69.1411 30.7314 69.1045 30.8088 69.0312 30.8901C68.958 30.9634 68.8848 31 68.8115 31H64.9785C64.8158 31 64.653 31.0041 64.4902 31.0122C64.3275 31.0285 64.1484 31.0366 63.9531 31.0366C63.8392 31.0366 63.7293 31.0326 63.6235 31.0244C63.5177 31.0163 63.4201 31 63.3306 30.9756C63.2817 30.943 63.2573 30.8657 63.2573 30.7437C63.2573 30.5728 63.298 30.4751 63.3794 30.4507C63.5828 30.4181 63.7578 30.3937 63.9043 30.3774C64.0508 30.353 64.2054 30.3408 64.3682 30.3408C64.4984 30.3408 64.5879 30.3408 64.6367 30.3408C64.6937 30.3327 64.7588 30.3205 64.832 30.3042C64.946 30.2554 65.0029 30.0845 65.0029 29.7915V20.0625C65.0029 19.9648 64.9541 19.8794 64.8564 19.8062C64.7669 19.7248 64.6774 19.6841 64.5879 19.6841C64.4007 19.6841 64.2542 19.7004 64.1484 19.7329C64.0508 19.7573 63.9206 19.7695 63.7578 19.7695C63.652 19.7695 63.5462 19.7614 63.4404 19.7451C63.3346 19.7207 63.2288 19.6922 63.123 19.6597C63.0661 19.6353 63.0376 19.5864 63.0376 19.5132C63.0132 19.4074 63.0213 19.3219 63.062 19.2568C63.1108 19.1917 63.1759 19.1429 63.2573 19.1104C63.3387 19.0697 63.4282 19.0452 63.5259 19.0371C63.6317 19.029 63.7293 19.0249 63.8188 19.0249H68.2134C68.425 19.0249 68.5592 19.0249 68.6162 19.0249C68.6732 19.0249 68.7098 19.033 68.7261 19.0493C68.8807 19.0737 68.958 19.1632 68.958 19.3179C68.958 19.4888 68.8644 19.5986 68.6772 19.6475C68.4901 19.6963 68.2826 19.7248 68.0547 19.7329C67.835 19.741 67.6315 19.7573 67.4443 19.7817C67.2572 19.798 67.1636 19.8631 67.1636 19.9771ZM82.9409 31.0244C82.9246 31.0244 82.8921 31.0244 82.8433 31.0244C82.7944 31.0326 82.7375 31.0366 82.6724 31.0366C82.6154 31.0448 82.5625 31.0488 82.5137 31.0488C82.4648 31.057 82.4323 31.061 82.416 31.061C82.3265 31.061 82.2533 31.0326 82.1963 30.9756C82.1475 30.9105 82.123 30.8332 82.123 30.7437C82.123 30.6053 82.1678 30.5158 82.2573 30.4751C82.355 30.4344 82.4852 30.4141 82.6479 30.4141C82.7619 30.4141 82.888 30.4222 83.0264 30.4385C83.1647 30.4466 83.2909 30.4507 83.4048 30.4507C83.5431 30.4507 83.6611 30.4344 83.7588 30.4019C83.8646 30.3693 83.9215 30.2879 83.9297 30.1577V21.5396C83.9215 21.4419 83.9012 21.3931 83.8687 21.3931C83.8198 21.3931 83.7222 21.5558 83.5757 21.8813C83.5187 22.0034 83.4495 22.1418 83.3682 22.2964C83.2868 22.451 83.2054 22.6056 83.124 22.7603C83.0508 22.9149 82.9775 23.0654 82.9043 23.2119C82.8311 23.3503 82.7741 23.4683 82.7334 23.5659C82.2777 24.5343 81.8464 25.4906 81.4395 26.4346C81.0326 27.3704 80.5768 28.3063 80.0723 29.2422C80.0479 29.2829 80.0031 29.3643 79.938 29.4863C79.881 29.6003 79.82 29.7264 79.7549 29.8647C79.6898 30.0031 79.6206 30.1455 79.5474 30.292C79.4823 30.4303 79.4294 30.5483 79.3887 30.646C79.3398 30.7355 79.2992 30.7925 79.2666 30.8169C79.234 30.8413 79.1974 30.8535 79.1567 30.8535C79.0835 30.8535 79.0021 30.7843 78.9126 30.646C78.8719 30.5972 78.8231 30.528 78.7661 30.4385C78.7173 30.349 78.6359 30.1984 78.522 29.9868C78.4162 29.7752 78.2697 29.4863 78.0825 29.1201C77.8953 28.7458 77.6512 28.2534 77.3501 27.6431C77.049 27.0246 76.6746 26.2637 76.2271 25.3604C75.7876 24.457 75.2586 23.3747 74.6401 22.1133C74.5262 21.9261 74.4285 21.743 74.3472 21.564C74.2658 21.3768 74.1396 21.214 73.9688 21.0757C73.8955 21.686 73.8467 22.2801 73.8223 22.8579C73.7979 23.4276 73.7694 24.0094 73.7368 24.6035C73.6961 25.2952 73.6554 25.991 73.6147 26.6909C73.5822 27.3826 73.5659 28.0744 73.5659 28.7661C73.5659 28.8963 73.57 29.0347 73.5781 29.1812C73.5863 29.3276 73.6107 29.466 73.6514 29.5962C73.6921 29.7264 73.749 29.8444 73.8223 29.9502C73.9036 30.0479 74.0135 30.117 74.1519 30.1577L75.5557 30.4507C75.5964 30.467 75.6208 30.5036 75.6289 30.5605C75.637 30.6094 75.6411 30.6501 75.6411 30.6826C75.6411 30.8617 75.5597 30.9593 75.397 30.9756H74.7866C74.4611 30.9756 74.1478 30.9674 73.8467 30.9512C73.5456 30.9268 73.2404 30.9146 72.9312 30.9146C72.5975 30.9146 72.2679 30.9268 71.9424 30.9512C71.625 30.9674 71.2995 30.9756 70.9658 30.9756H70.6484C70.6077 30.9593 70.5874 30.9186 70.5874 30.8535C70.5874 30.707 70.6606 30.589 70.8071 30.4995C70.9536 30.41 71.1245 30.3327 71.3198 30.2676C71.5233 30.1943 71.7227 30.1252 71.918 30.0601C72.1133 29.9868 72.2598 29.8932 72.3574 29.7793C72.4469 29.6654 72.5202 29.466 72.5771 29.1812C72.6423 28.8963 72.6911 28.5789 72.7236 28.229C72.7399 28.0337 72.7603 27.7896 72.7847 27.4966C72.8091 27.2036 72.8376 26.8333 72.8701 26.3857C72.9108 25.9382 72.9556 25.4051 73.0044 24.7866C73.0532 24.1681 73.1143 23.4357 73.1875 22.5894C73.2201 22.3534 73.2648 22.0278 73.3218 21.6128C73.3869 21.1896 73.4194 20.7013 73.4194 20.1479C73.4194 19.9771 73.3299 19.8509 73.1509 19.7695C72.98 19.68 72.7847 19.6108 72.5649 19.562C72.3534 19.505 72.158 19.4481 71.979 19.3911C71.8081 19.326 71.7227 19.2324 71.7227 19.1104C71.7227 19.029 71.7511 18.9639 71.8081 18.915C71.8732 18.8662 71.9465 18.8337 72.0278 18.8174C72.1174 18.793 72.2069 18.7808 72.2964 18.7808C72.3859 18.7726 72.4632 18.7686 72.5283 18.7686C72.5527 18.7686 72.6138 18.7767 72.7114 18.793C72.8172 18.8092 72.9271 18.8255 73.041 18.8418C73.1631 18.8581 73.2729 18.8743 73.3706 18.8906C73.4764 18.9069 73.5415 18.915 73.5659 18.915H75.0918C75.2546 18.9557 75.3766 19.0208 75.458 19.1104C75.5475 19.1917 75.6208 19.2975 75.6777 19.4277C75.7103 19.5091 75.7469 19.5986 75.7876 19.6963C75.8364 19.7858 75.8893 19.8957 75.9463 20.0259C76.0114 20.1479 76.0846 20.2985 76.166 20.4775C76.2555 20.6566 76.3613 20.8682 76.4834 21.1123C76.6787 21.5192 76.8781 21.9424 77.0815 22.3818C77.285 22.8213 77.4884 23.2607 77.6919 23.7002C77.8953 24.1396 78.0947 24.5791 78.29 25.0186C78.4854 25.4499 78.6766 25.8649 78.8638 26.2637C78.88 26.3044 78.9167 26.3979 78.9736 26.5444C79.0306 26.6909 79.0998 26.8537 79.1812 27.0327C79.2625 27.2036 79.3439 27.3745 79.4253 27.5454C79.5148 27.7082 79.5962 27.8302 79.6694 27.9116C79.7264 27.9849 79.7834 28.0215 79.8403 28.0215C79.8892 28.0215 79.9461 27.9727 80.0112 27.875C80.1496 27.5739 80.3083 27.228 80.4873 26.8374C80.6745 26.4386 80.8698 26.0195 81.0732 25.5801C81.2767 25.1325 81.4842 24.6768 81.6958 24.2129C81.9155 23.749 82.1271 23.2974 82.3306 22.8579C82.5422 22.4103 82.7415 21.9871 82.9287 21.5884C83.124 21.1896 83.299 20.8356 83.4536 20.5264C83.4862 20.4613 83.5228 20.3473 83.5635 20.1846C83.6123 20.0137 83.6652 19.8428 83.7222 19.6719C83.7873 19.4928 83.8564 19.3382 83.9297 19.208C84.0029 19.0697 84.0802 19.0005 84.1616 19.0005H86.7861C86.8431 19.0005 86.9082 18.9883 86.9814 18.9639C87.0628 18.9313 87.1239 18.915 87.1646 18.915C87.2622 18.915 87.3761 18.9272 87.5063 18.9517C87.6366 18.9679 87.722 19.033 87.7627 19.147C87.7871 19.2284 87.7627 19.2894 87.6895 19.3301C87.6162 19.3626 87.5186 19.3911 87.3965 19.4155C87.2744 19.4318 87.1361 19.4521 86.9814 19.4766C86.835 19.501 86.6925 19.5417 86.5542 19.5986C86.424 19.6556 86.3141 19.741 86.2246 19.855C86.1351 19.9689 86.0903 20.1235 86.0903 20.3188V30.2188C86.0903 30.3083 86.1107 30.3652 86.1514 30.3896C86.249 30.4141 86.3711 30.4344 86.5176 30.4507C86.6641 30.467 86.8146 30.4873 86.9692 30.5117C87.1239 30.528 87.2785 30.5524 87.4331 30.585C87.5877 30.6094 87.722 30.6419 87.8359 30.6826C87.8766 30.7152 87.9132 30.7559 87.9458 30.8047C87.9784 30.8454 87.9946 30.882 87.9946 30.9146C87.9946 30.9634 87.9743 31.0041 87.9336 31.0366C87.8929 31.0692 87.8441 31.0936 87.7871 31.1099C87.7383 31.1343 87.6813 31.1506 87.6162 31.1587C87.5592 31.1668 87.5145 31.1709 87.4819 31.1709C86.9448 31.1709 86.4077 31.1465 85.8706 31.0977C85.3416 31.0488 84.8086 31.0244 84.2715 31.0244H82.9409ZM93.8599 19.9771V29.5474C93.8599 29.5881 93.8639 29.6491 93.8721 29.7305C93.8802 29.8118 93.8924 29.8973 93.9087 29.9868C93.9331 30.0682 93.9657 30.1414 94.0063 30.2065C94.047 30.2716 94.104 30.3042 94.1772 30.3042H95.52C95.6095 30.3042 95.6828 30.3408 95.7397 30.4141C95.8049 30.4873 95.8374 30.5687 95.8374 30.6582C95.8374 30.7314 95.8008 30.8088 95.7275 30.8901C95.6543 30.9634 95.5811 31 95.5078 31H91.6748C91.512 31 91.3493 31.0041 91.1865 31.0122C91.0238 31.0285 90.8447 31.0366 90.6494 31.0366C90.5355 31.0366 90.4256 31.0326 90.3198 31.0244C90.214 31.0163 90.1164 31 90.0269 30.9756C89.978 30.943 89.9536 30.8657 89.9536 30.7437C89.9536 30.5728 89.9943 30.4751 90.0757 30.4507C90.2791 30.4181 90.4541 30.3937 90.6006 30.3774C90.7471 30.353 90.9017 30.3408 91.0645 30.3408C91.1947 30.3408 91.2842 30.3408 91.333 30.3408C91.39 30.3327 91.4551 30.3205 91.5283 30.3042C91.6423 30.2554 91.6992 30.0845 91.6992 29.7915V20.0625C91.6992 19.9648 91.6504 19.8794 91.5527 19.8062C91.4632 19.7248 91.3737 19.6841 91.2842 19.6841C91.097 19.6841 90.9505 19.7004 90.8447 19.7329C90.7471 19.7573 90.6169 19.7695 90.4541 19.7695C90.3483 19.7695 90.2425 19.7614 90.1367 19.7451C90.0309 19.7207 89.9251 19.6922 89.8193 19.6597C89.7624 19.6353 89.7339 19.5864 89.7339 19.5132C89.7095 19.4074 89.7176 19.3219 89.7583 19.2568C89.8071 19.1917 89.8722 19.1429 89.9536 19.1104C90.035 19.0697 90.1245 19.0452 90.2222 19.0371C90.328 19.029 90.4256 19.0249 90.5151 19.0249H94.9097C95.1213 19.0249 95.2555 19.0249 95.3125 19.0249C95.3695 19.0249 95.4061 19.033 95.4224 19.0493C95.577 19.0737 95.6543 19.1632 95.6543 19.3179C95.6543 19.4888 95.5607 19.5986 95.3735 19.6475C95.1864 19.6963 94.9788 19.7248 94.751 19.7329C94.5312 19.741 94.3278 19.7573 94.1406 19.7817C93.9535 19.798 93.8599 19.8631 93.8599 19.9771ZM99.957 30.8047C99.957 30.6826 100.006 30.5972 100.104 30.5483C100.201 30.4914 100.307 30.4466 100.421 30.4141C100.47 30.4141 100.543 30.41 100.641 30.4019C100.746 30.3937 100.856 30.3856 100.97 30.3774C101.084 30.3693 101.19 30.3612 101.288 30.353C101.385 30.3449 101.454 30.3408 101.495 30.3408C101.658 30.3245 101.739 30.2472 101.739 30.1089V20.5264C101.739 20.502 101.735 20.4613 101.727 20.4043C101.727 20.3473 101.723 20.2863 101.715 20.2212C101.707 20.1561 101.699 20.091 101.69 20.0259C101.682 19.9608 101.674 19.916 101.666 19.8916C101.666 19.8753 101.662 19.8509 101.654 19.8184C101.646 19.7858 101.621 19.7614 101.581 19.7451C101.556 19.7451 101.515 19.7451 101.458 19.7451C101.402 19.737 101.34 19.7329 101.275 19.7329C101.21 19.7329 101.149 19.7329 101.092 19.7329C101.035 19.7248 100.995 19.7207 100.97 19.7207H100.506C100.376 19.7207 100.234 19.7248 100.079 19.7329C99.9245 19.741 99.7699 19.7533 99.6152 19.7695C99.4688 19.7777 99.3345 19.7939 99.2124 19.8184C99.0903 19.8346 98.9927 19.859 98.9194 19.8916C98.7811 19.9486 98.6387 20.0666 98.4922 20.2456C98.3538 20.4165 98.2155 20.5996 98.0771 20.7949C97.9469 20.9821 97.8167 21.1489 97.6865 21.2954C97.5645 21.4419 97.4505 21.5151 97.3447 21.5151C97.1738 21.5151 97.0884 21.4256 97.0884 21.2466V21.1855C97.1779 20.8844 97.2674 20.5833 97.3569 20.2822C97.4546 19.9811 97.54 19.6759 97.6133 19.3667C97.6296 19.2935 97.6458 19.1795 97.6621 19.0249C97.6865 18.8621 97.7191 18.6994 97.7598 18.5366C97.8005 18.3657 97.8574 18.2192 97.9307 18.0972C98.0039 17.967 98.1016 17.9019 98.2236 17.9019C98.3213 17.9019 98.3986 17.9425 98.4556 18.0239C98.5125 18.0972 98.5614 18.1867 98.6021 18.2925C98.6509 18.3901 98.7038 18.4878 98.7607 18.5854C98.8177 18.675 98.895 18.7319 98.9927 18.7563C99.3182 18.7889 99.5868 18.8092 99.7983 18.8174C100.01 18.8174 100.226 18.8174 100.445 18.8174H100.958C101.804 18.8174 102.63 18.8092 103.436 18.793C104.242 18.7686 105.068 18.7563 105.914 18.7563H106.549C106.703 18.7563 106.801 18.6994 106.842 18.5854C106.858 18.561 106.874 18.5203 106.891 18.4634C106.915 18.3983 106.935 18.3291 106.952 18.2559C106.976 18.1826 106.996 18.1134 107.013 18.0483C107.037 17.9751 107.057 17.9263 107.074 17.9019C107.106 17.853 107.151 17.8245 107.208 17.8164C107.265 17.8083 107.314 17.8042 107.354 17.8042C107.428 17.8042 107.477 17.8083 107.501 17.8164C107.534 17.8245 107.566 17.853 107.599 17.9019C107.721 18.089 107.818 18.2965 107.892 18.5244C107.965 18.7441 108.034 18.972 108.099 19.208C108.164 19.4359 108.229 19.6637 108.294 19.8916C108.36 20.1195 108.441 20.3311 108.539 20.5264C108.555 20.5671 108.579 20.6159 108.612 20.6729C108.644 20.7217 108.677 20.7746 108.709 20.8315C108.742 20.8804 108.771 20.9251 108.795 20.9658C108.827 21.0065 108.848 21.035 108.856 21.0513C108.864 21.0838 108.88 21.1489 108.905 21.2466C108.937 21.3361 108.954 21.4215 108.954 21.5029C108.954 21.5518 108.941 21.5762 108.917 21.5762C108.754 21.5762 108.579 21.5151 108.392 21.3931C108.213 21.2629 108.03 21.1164 107.843 20.9536C107.664 20.7827 107.485 20.6159 107.306 20.4531C107.135 20.2822 106.98 20.152 106.842 20.0625C106.752 20.0055 106.622 19.9567 106.451 19.916C106.28 19.8672 106.097 19.8265 105.902 19.7939C105.707 19.7614 105.519 19.737 105.34 19.7207C105.161 19.7044 105.023 19.6963 104.925 19.6963H104.693C104.62 19.6963 104.543 19.7004 104.461 19.7085C104.38 19.7166 104.303 19.7329 104.229 19.7573C104.156 19.7817 104.095 19.8184 104.046 19.8672C103.998 19.916 103.973 19.9811 103.973 20.0625V26.459C103.973 26.8333 103.961 27.1914 103.937 27.5332C103.92 27.8669 103.912 28.1761 103.912 28.4609C103.912 28.5586 103.912 28.6929 103.912 28.8638C103.92 29.0347 103.928 29.2137 103.937 29.4009C103.945 29.5799 103.953 29.7508 103.961 29.9136C103.977 30.0763 103.993 30.1984 104.01 30.2798H105.475C105.597 30.2798 105.715 30.3245 105.829 30.4141C105.943 30.4954 106 30.6053 106 30.7437C106 30.7843 105.991 30.8372 105.975 30.9023C105.959 30.9674 105.926 31 105.877 31H101.288H100.592H100.128C100.038 31 99.9855 30.9878 99.9692 30.9634C99.9611 30.939 99.957 30.8861 99.957 30.8047ZM113.952 20.0137C113.952 20.0462 113.956 20.1276 113.964 20.2578C113.972 20.388 113.981 20.5264 113.989 20.6729C114.005 20.8193 114.017 20.9577 114.025 21.0879C114.034 21.2181 114.038 21.2995 114.038 21.332V24.5425C114.038 24.689 114.086 24.7866 114.184 24.8354C114.2 24.8354 114.245 24.8395 114.318 24.8477C114.392 24.8558 114.469 24.8639 114.55 24.8721C114.64 24.8721 114.725 24.8761 114.807 24.8843C114.896 24.8924 114.965 24.8965 115.014 24.8965C115.291 24.8965 115.551 24.8558 115.795 24.7744C116.202 24.6768 116.556 24.5669 116.857 24.4448C117.159 24.3146 117.407 24.1437 117.602 23.9321C117.806 23.7205 117.956 23.452 118.054 23.1265C118.151 22.8009 118.2 22.3859 118.2 21.8813C118.2 21.214 117.976 20.6566 117.529 20.209C117.187 19.859 116.788 19.623 116.333 19.501C115.877 19.3789 115.344 19.3179 114.733 19.3179C114.514 19.3179 114.326 19.3748 114.172 19.4888C114.025 19.6027 113.952 19.7777 113.952 20.0137ZM117.626 30.7314C117.626 30.6012 117.704 30.5158 117.858 30.4751H118.774C118.847 30.4588 118.92 30.4507 118.994 30.4507C119.067 30.4425 119.12 30.4222 119.152 30.3896C119.193 30.3652 119.213 30.3368 119.213 30.3042C119.213 30.2716 119.193 30.2228 119.152 30.1577C118.591 29.4009 118.025 28.644 117.456 27.8872C116.894 27.1304 116.32 26.3654 115.734 25.5923C115.702 25.5597 115.661 25.5231 115.612 25.4824C115.572 25.4417 115.535 25.4214 115.502 25.4214L114.27 25.2749H114.233C114.103 25.2749 114.038 25.3522 114.038 25.5068V29.2422C114.038 29.5596 114.074 29.8037 114.147 29.9746C114.229 30.1374 114.326 30.2554 114.44 30.3286C114.554 30.3937 114.681 30.4303 114.819 30.4385C114.965 30.4466 115.1 30.4507 115.222 30.4507C115.36 30.4507 115.478 30.4629 115.576 30.4873C115.681 30.5117 115.734 30.6053 115.734 30.7681C115.734 30.8657 115.69 30.9308 115.6 30.9634C115.511 30.9878 115.421 31 115.332 31H110.449C110.375 31 110.306 30.9797 110.241 30.939C110.184 30.8983 110.156 30.8413 110.156 30.7681C110.156 30.6785 110.213 30.6012 110.327 30.5361C110.408 30.5117 110.542 30.4954 110.729 30.4873C110.925 30.471 111.12 30.4548 111.315 30.4385C111.511 30.4222 111.682 30.3978 111.828 30.3652C111.983 30.3245 112.06 30.2635 112.06 30.1821V29.7549C112.06 29.3724 112.056 29.0225 112.048 28.7051C112.04 28.3877 112.032 28.0662 112.023 27.7407C112.023 27.4071 112.019 27.0531 112.011 26.6787C112.003 26.3044 111.999 25.873 111.999 25.3848V21.5029V19.9526C111.983 19.9201 111.971 19.8713 111.962 19.8062C111.962 19.7329 111.946 19.6759 111.914 19.6353C111.897 19.619 111.877 19.6068 111.853 19.5986C111.836 19.5905 111.82 19.5824 111.804 19.5742C111.779 19.5661 111.763 19.5579 111.755 19.5498H110.62C110.53 19.5498 110.437 19.5295 110.339 19.4888C110.249 19.4481 110.188 19.3911 110.156 19.3179C110.148 19.3097 110.144 19.2975 110.144 19.2812C110.135 19.2731 110.131 19.2568 110.131 19.2324C110.131 19.1836 110.144 19.1266 110.168 19.0615C110.201 18.9964 110.253 18.9639 110.327 18.9639H116.491C117.053 18.9639 117.578 19.0249 118.066 19.147C118.562 19.2609 118.994 19.4481 119.36 19.7085C119.726 19.9689 120.015 20.3107 120.227 20.7339C120.438 21.1489 120.544 21.6576 120.544 22.2598C120.544 22.6585 120.515 22.9881 120.458 23.2485C120.402 23.5008 120.312 23.7165 120.19 23.8955C120.068 24.0745 119.913 24.2332 119.726 24.3716C119.539 24.5099 119.319 24.6646 119.067 24.8354C119.018 24.8761 118.945 24.9168 118.847 24.9575C118.758 24.9982 118.668 25.0389 118.579 25.0796C118.489 25.1121 118.412 25.1488 118.347 25.1895C118.282 25.2301 118.249 25.2749 118.249 25.3237C118.249 25.3644 118.306 25.4743 118.42 25.6533C118.542 25.8242 118.688 26.0317 118.859 26.2759C119.038 26.52 119.234 26.7804 119.445 27.0571C119.665 27.3257 119.868 27.582 120.056 27.8262C120.251 28.0703 120.418 28.2819 120.556 28.4609C120.703 28.6318 120.796 28.7376 120.837 28.7783C121.057 28.998 121.276 29.2056 121.496 29.4009C121.724 29.5881 121.96 29.759 122.204 29.9136C122.456 30.0682 122.721 30.2025 122.998 30.3164C123.274 30.4222 123.571 30.4954 123.889 30.5361C123.954 30.6501 123.986 30.7477 123.986 30.8291C123.986 30.9023 123.97 30.9512 123.938 30.9756C123.913 30.9919 123.844 31 123.73 31H119.067H118.347C118.322 31 118.269 31 118.188 31C118.115 30.9919 118.033 30.9797 117.944 30.9634C117.862 30.9471 117.789 30.9227 117.724 30.8901C117.659 30.8494 117.626 30.7965 117.626 30.7314ZM124.2 25.2505C124.2 24.7703 124.244 24.335 124.334 23.9443C124.424 23.5456 124.558 23.1753 124.737 22.8335C124.916 22.4917 125.136 22.1702 125.396 21.8691C125.665 21.5599 125.97 21.2588 126.312 20.9658C126.58 20.738 126.869 20.5508 127.178 20.4043C127.487 20.2578 127.805 20.1439 128.13 20.0625C128.464 19.973 128.806 19.9119 129.156 19.8794C129.506 19.8468 129.852 19.8306 130.193 19.8306C130.486 19.8306 130.796 19.8753 131.121 19.9648C131.455 20.0544 131.776 20.1724 132.085 20.3188C132.395 20.4572 132.68 20.6118 132.94 20.7827C133.2 20.9455 133.416 21.1042 133.587 21.2588C134.181 21.8203 134.641 22.4307 134.966 23.0898C135.292 23.7409 135.455 24.457 135.455 25.2383C135.455 25.6615 135.422 26.0521 135.357 26.4102C135.3 26.7601 135.21 27.0897 135.088 27.3989C134.974 27.7082 134.828 28.0011 134.649 28.2778C134.478 28.5545 134.279 28.8271 134.051 29.0957C133.839 29.3317 133.587 29.5636 133.294 29.7915C133.009 30.0194 132.692 30.2228 132.342 30.4019C131.992 30.5809 131.613 30.7274 131.207 30.8413C130.808 30.9471 130.393 31 129.961 31C129.221 31 128.537 30.9023 127.911 30.707C127.292 30.5036 126.714 30.1496 126.177 29.645C124.859 28.4976 124.2 27.0327 124.2 25.2505ZM129.852 20.3555C129.485 20.3555 129.172 20.3962 128.912 20.4775C128.659 20.5508 128.431 20.6606 128.228 20.8071C128.033 20.9455 127.854 21.1164 127.691 21.3198C127.528 21.5233 127.361 21.7511 127.19 22.0034C126.881 22.4836 126.678 22.9963 126.58 23.5415C126.482 24.0786 126.434 24.6239 126.434 25.1772C126.434 25.812 126.495 26.4468 126.617 27.0815C126.747 27.7082 126.995 28.3185 127.361 28.9126C127.459 29.0835 127.597 29.2625 127.776 29.4497C127.955 29.6287 128.151 29.7956 128.362 29.9502C128.574 30.0967 128.79 30.2228 129.009 30.3286C129.237 30.4263 129.449 30.4751 129.644 30.4751C130.027 30.4751 130.36 30.41 130.645 30.2798C130.938 30.1496 131.198 29.9787 131.426 29.7671C131.654 29.5474 131.854 29.2992 132.024 29.0225C132.203 28.7376 132.374 28.4447 132.537 28.1436C132.741 27.7448 132.887 27.3175 132.977 26.8618C133.074 26.3979 133.123 25.8975 133.123 25.3604C133.123 24.9779 133.095 24.6198 133.038 24.2861C132.989 23.9525 132.907 23.631 132.793 23.3218C132.688 23.0125 132.553 22.7114 132.391 22.4185C132.228 22.1174 132.037 21.8122 131.817 21.5029C131.597 21.1693 131.316 20.8966 130.975 20.6851C130.641 20.4653 130.267 20.3555 129.852 20.3555ZM141.979 30.8535L138.39 20.0015C138.358 19.9282 138.26 19.8753 138.097 19.8428C137.934 19.8021 137.772 19.7817 137.609 19.7817H137.206C137.141 19.7817 137.072 19.7777 136.999 19.7695C136.925 19.7533 136.856 19.7329 136.791 19.7085C136.726 19.6759 136.673 19.6393 136.632 19.5986C136.592 19.5498 136.571 19.4928 136.571 19.4277C136.571 19.2406 136.649 19.147 136.803 19.147H137.316C137.381 19.147 137.471 19.151 137.584 19.1592C137.698 19.1673 137.816 19.1755 137.938 19.1836C138.069 19.1917 138.199 19.1999 138.329 19.208C138.459 19.2161 138.573 19.2202 138.671 19.2202C138.736 19.2202 138.858 19.2161 139.037 19.208C139.216 19.1999 139.42 19.1917 139.647 19.1836C139.883 19.1673 140.124 19.151 140.368 19.1348C140.62 19.1185 140.852 19.1063 141.063 19.0981C141.283 19.0819 141.466 19.0697 141.613 19.0615C141.767 19.0534 141.861 19.0493 141.894 19.0493C142.138 19.0493 142.26 19.1632 142.26 19.3911C142.26 19.4562 142.195 19.5091 142.064 19.5498C141.942 19.5905 141.792 19.6271 141.613 19.6597C141.442 19.6922 141.267 19.7248 141.088 19.7573C140.909 19.7817 140.771 19.8062 140.673 19.8306C140.632 19.855 140.612 19.9038 140.612 19.9771C140.612 19.9933 140.616 20.0096 140.624 20.0259C140.624 20.0422 140.632 20.0828 140.648 20.1479L143.188 27.814C143.212 27.8872 143.232 27.932 143.249 27.9482C143.257 27.9645 143.265 27.9686 143.273 27.9604C143.297 27.9604 143.326 27.9401 143.358 27.8994C143.391 27.8506 143.424 27.7936 143.456 27.7285C143.497 27.6634 143.529 27.5942 143.554 27.521C143.586 27.4396 143.611 27.3664 143.627 27.3013C143.936 26.4142 144.233 25.5353 144.518 24.6646C144.803 23.7856 145.112 22.9189 145.446 22.0645C145.56 21.7552 145.67 21.4663 145.775 21.1978C145.881 20.9292 145.934 20.6281 145.934 20.2944C145.934 20.1805 145.926 20.0706 145.91 19.9648C145.893 19.859 145.865 19.7858 145.824 19.7451C145.8 19.7207 145.751 19.7004 145.678 19.6841C145.604 19.6597 145.523 19.6434 145.434 19.6353C145.352 19.619 145.267 19.6068 145.177 19.5986C145.096 19.5905 145.031 19.5824 144.982 19.5742C144.941 19.5742 144.868 19.5742 144.762 19.5742C144.665 19.5661 144.563 19.5498 144.457 19.5254C144.351 19.501 144.258 19.4644 144.176 19.4155C144.103 19.3667 144.066 19.3016 144.066 19.2202C144.066 19.1144 144.091 19.0493 144.14 19.0249C144.148 19.0005 144.209 18.9883 144.323 18.9883H144.494C144.608 18.9883 144.766 18.9964 144.97 19.0127C145.181 19.029 145.409 19.0452 145.653 19.0615C145.906 19.0778 146.162 19.0941 146.422 19.1104C146.691 19.1266 146.935 19.1348 147.155 19.1348H147.875C148.078 19.1348 148.294 19.1266 148.522 19.1104C148.75 19.0859 148.933 19.0737 149.071 19.0737C149.234 19.0737 149.352 19.0941 149.425 19.1348C149.507 19.1673 149.547 19.2528 149.547 19.3911C149.547 19.4888 149.466 19.5701 149.303 19.6353C149.149 19.6922 148.961 19.7451 148.742 19.7939C148.53 19.8346 148.319 19.8753 148.107 19.916C147.895 19.9567 147.741 20.0055 147.643 20.0625C147.456 20.1846 147.277 20.3636 147.106 20.5996C146.935 20.8275 146.776 21.0716 146.63 21.332C146.492 21.5843 146.369 21.8366 146.264 22.0889C146.158 22.3411 146.076 22.5527 146.02 22.7236C145.686 23.5374 145.324 24.4082 144.933 25.3359C144.551 26.2637 144.172 27.1751 143.798 28.0703C143.773 28.1354 143.716 28.2738 143.627 28.4854C143.537 28.6969 143.444 28.9248 143.346 29.1689C143.249 29.4131 143.155 29.6491 143.065 29.877C142.984 30.0967 142.927 30.2594 142.895 30.3652C142.854 30.4873 142.809 30.6134 142.76 30.7437C142.72 30.8657 142.675 30.9756 142.626 31.0732C142.577 31.179 142.528 31.2645 142.479 31.3296C142.439 31.3947 142.398 31.4272 142.357 31.4272C142.317 31.4272 142.276 31.4028 142.235 31.354C142.203 31.3052 142.17 31.2482 142.138 31.1831C142.105 31.118 142.077 31.0529 142.052 30.9878C142.028 30.9227 142.003 30.8779 141.979 30.8535Z" fill="#434343"/>
<path d="M23.8062 33.8245C28.7511 22.4548 43.485 24.586 42.8107 3.66228C42.2713 2.80383 40.7879 3.23306 40.5368 3.66228C42.469 25.3732 28.9538 20.9933 23.8062 33.8245C23.2751 35.0455 22.857 36.4223 22.5829 38C22.9009 36.4268 23.3155 35.0475 23.8062 33.8245Z" fill="#434343"/>
<path d="M42.8107 3.66228C43.5575 26.8331 25.4088 21.7311 22.5829 38C26.2372 19.9214 42.6532 27.4425 40.5368 3.66228C40.7879 3.23306 42.2713 2.80383 42.8107 3.66228Z" stroke="#434343" stroke-width="0.5"/>
<path d="M17.9014 18.8223C17.9014 18.5599 18.0876 18.4287 18.46 18.4287C18.7223 18.4287 18.9932 18.4076 19.2725 18.3652C19.5518 18.3145 19.8141 18.2552 20.0596 18.1875C20.195 18.1536 20.3135 18.1029 20.415 18.0352C20.5166 17.959 20.5674 17.8278 20.5674 17.6416V2.03906C20.5166 1.92057 20.4193 1.81901 20.2754 1.73438C20.14 1.64974 19.9792 1.58203 19.793 1.53125C19.6068 1.48047 19.4079 1.43815 19.1963 1.4043C18.9932 1.37044 18.7943 1.34082 18.5996 1.31543C18.4134 1.29004 18.2399 1.26465 18.0791 1.23926C17.9268 1.2054 17.8125 1.16732 17.7363 1.125C17.6771 1.10807 17.6475 1.04883 17.6475 0.947266C17.6475 0.871094 17.6771 0.828776 17.7363 0.820312C17.7702 0.803385 17.821 0.786458 17.8887 0.769531C17.9564 0.752604 18.0876 0.744141 18.2822 0.744141C18.3499 0.744141 18.5065 0.752604 18.752 0.769531C19.0059 0.777995 19.2809 0.794922 19.5771 0.820312C19.8734 0.83724 20.1527 0.854167 20.415 0.871094C20.6859 0.879557 20.8678 0.883789 20.9609 0.883789H22.6748C22.7087 0.883789 22.7891 0.879557 22.916 0.871094C23.0514 0.86263 23.1953 0.858398 23.3477 0.858398C23.5 0.849935 23.6354 0.841471 23.7539 0.833008C23.8809 0.824544 23.9528 0.820312 23.9697 0.820312C24.2575 0.777995 24.5452 0.752604 24.833 0.744141C25.1208 0.735677 25.4128 0.731445 25.709 0.731445C26.2253 0.731445 26.7542 0.752604 27.2959 0.794922C27.846 0.828776 28.3623 0.938802 28.8447 1.125C29.3356 1.3112 29.7799 1.56087 30.1777 1.87402C30.5755 2.17871 30.9141 2.52995 31.1934 2.92773C31.4811 3.31706 31.7012 3.74447 31.8535 4.20996C32.0143 4.67546 32.0947 5.15365 32.0947 5.64453C32.0947 6.50781 31.9382 7.25684 31.625 7.8916C31.3203 8.5179 30.8252 9.08073 30.1396 9.58008C29.7165 9.88477 29.2002 10.1429 28.5908 10.3545C27.9899 10.5576 27.3044 10.6592 26.5342 10.6592C26.2041 10.6592 25.8783 10.6549 25.5566 10.6465C25.235 10.6296 24.9049 10.6042 24.5664 10.5703C24.5241 10.5703 24.4733 10.5618 24.4141 10.5449C24.3548 10.528 24.2786 10.5195 24.1855 10.5195H23.9443C23.8682 10.5195 23.8258 10.5365 23.8174 10.5703C23.682 10.6126 23.5677 10.6888 23.4746 10.7988C23.3815 10.9004 23.335 11.0781 23.335 11.332V13.7695C23.335 14.3451 23.3096 14.9714 23.2588 15.6484C23.2165 16.3255 23.1953 16.973 23.1953 17.5908C23.1953 17.7686 23.2334 17.8955 23.3096 17.9717C23.3857 18.0394 23.4958 18.0902 23.6396 18.124C24.0205 18.2171 24.3802 18.2848 24.7188 18.3271C25.0573 18.361 25.4085 18.416 25.7725 18.4922C25.8994 18.5345 25.9756 18.5811 26.001 18.6318C26.0348 18.6742 26.0518 18.7249 26.0518 18.7842C26.0518 18.835 26.0264 18.8773 25.9756 18.9111C25.9333 18.9365 25.8783 18.9619 25.8105 18.9873C25.7513 19.0042 25.6878 19.0169 25.6201 19.0254C25.5609 19.0339 25.5101 19.0381 25.4678 19.0381C25.3662 19.0381 25.2393 19.0339 25.0869 19.0254C24.943 19.0254 24.7949 19.0212 24.6426 19.0127C24.4987 19.0127 24.359 19.0085 24.2236 19C24.0967 19 23.9951 19 23.9189 19H20.085C19.7633 19 19.4544 19.0042 19.1582 19.0127C18.8704 19.0296 18.6589 19.0381 18.5234 19.0381H18.0537C17.9521 19.0296 17.9014 18.9577 17.9014 18.8223ZM23.5762 10.0879C23.7285 10.1302 23.8766 10.1683 24.0205 10.2021C24.1729 10.2275 24.359 10.2402 24.5791 10.2402C24.96 10.2402 25.3451 10.1979 25.7344 10.1133C26.1237 10.0202 26.4792 9.88477 26.8008 9.70703C27.1055 9.54622 27.4017 9.33464 27.6895 9.07227C27.9857 8.8099 28.248 8.50521 28.4766 8.1582C28.7051 7.80273 28.887 7.40918 29.0225 6.97754C29.1663 6.53743 29.2383 6.05924 29.2383 5.54297C29.2383 5.0013 29.179 4.52311 29.0605 4.1084C28.9421 3.68522 28.7643 3.31283 28.5273 2.99121C28.2988 2.6696 28.0068 2.3903 27.6514 2.15332C27.3044 1.90788 26.8981 1.68783 26.4326 1.49316C26.1787 1.38314 25.9121 1.30697 25.6328 1.26465C25.362 1.21387 25.0785 1.18848 24.7822 1.18848C24.5114 1.18848 24.2617 1.20117 24.0332 1.22656C23.8132 1.24349 23.5804 1.2985 23.335 1.3916V9.46582C23.335 9.60124 23.3434 9.72819 23.3604 9.84668C23.3857 9.96517 23.4577 10.0456 23.5762 10.0879Z" fill="#434343"/>
<path d="M25.4097 33.8245C20.4648 22.4548 5.73083 24.586 6.40516 3.66228C6.94457 2.80384 8.42795 3.23307 8.67911 3.66228C6.74684 25.3732 20.262 20.9933 25.4097 33.8245C25.9408 35.0455 26.3589 36.4223 26.6329 38C26.315 36.4268 25.9003 35.0475 25.4097 33.8245Z" fill="#434343"/>
<path d="M6.40516 3.66228C5.65841 26.8331 23.8071 21.7311 26.6329 38C22.9787 19.9214 6.56267 27.4425 8.67911 3.66228C8.42795 3.23307 6.94457 2.80384 6.40516 3.66228Z" stroke="#434343" stroke-width="0.5"/>
<path d="M3.54773 2.24997C18.9379 17.8333 10.0278 28.375 24.6079 32.0417" stroke="#434343" stroke-width="0.4"/>
<path d="M45.4523 2.25C30.0621 17.8334 38.9722 28.375 24.3921 32.0417" stroke="#434343" stroke-width="0.4"/>
<path d="M3.20906 5.91668C4.52388 27.5476 21.5815 14.2984 24.5656 31.585" stroke="#434343" stroke-width="0.4"/>
<path d="M45.9574 5.91668C44.6426 27.5476 27.585 14.2984 24.6009 31.585" stroke="#434343" stroke-width="0.4"/>
</g>
<defs>
<clipPath id="clip0_1_2">
<rect width="150" height="40" fill="white"/>
</clipPath>
</defs>
</svg>
