<svg width="140" height="140" viewBox="0 0 140 140" fill="none" xmlns="http://www.w3.org/2000/svg">
<rect x="26" y="26" width="87" height="87" fill="#3F0A22"/>
<path fill-rule="evenodd" clip-rule="evenodd" d="M30 18C23.3726 18 18 23.3726 18 30V110C18 116.627 23.3726 122 30 122H110C116.627 122 122 116.627 122 110V30C122 23.3726 116.627 18 110 18H30ZM112.545 26.404H26.404V112.545H112.545V26.404Z" fill="#FF41C8"/>
<path d="M47.9404 50.6094L55.165 64.0039L62.3896 50.6094H71.4336L60.2803 69.6465L71.7236 89H62.6006L55.165 75.3418L47.7295 89H38.5537L50.0234 69.6465L38.8438 50.6094H47.9404ZM91.3936 82.7773V48.5H99.04V89H92.1582L91.3936 82.7773ZM73.3584 75.0781V74.5244C73.3584 72.3447 73.6045 70.3672 74.0967 68.5918C74.5889 66.7988 75.3096 65.2607 76.2588 63.9775C77.208 62.6943 78.377 61.7012 79.7656 60.998C81.1543 60.2949 82.7363 59.9434 84.5117 59.9434C86.1816 59.9434 87.6406 60.2949 88.8887 60.998C90.1543 61.7012 91.2266 62.7031 92.1055 64.0039C93.002 65.2871 93.7227 66.8076 94.2676 68.5654C94.8125 70.3057 95.208 72.2129 95.4541 74.2871V75.5C95.208 77.4863 94.8125 79.332 94.2676 81.0371C93.7227 82.7422 93.002 84.2363 92.1055 85.5195C91.2266 86.7852 90.1543 87.7695 88.8887 88.4727C87.623 89.1758 86.1465 89.5273 84.459 89.5273C82.6836 89.5273 81.1016 89.167 79.7129 88.4463C78.3418 87.7256 77.1816 86.7148 76.2324 85.4141C75.3008 84.1133 74.5889 82.584 74.0967 80.8262C73.6045 79.0684 73.3584 77.1523 73.3584 75.0781ZM80.9521 74.5244V75.0781C80.9521 76.2559 81.04 77.3545 81.2158 78.374C81.4092 79.3936 81.7168 80.2988 82.1387 81.0898C82.5781 81.8633 83.1406 82.4697 83.8262 82.9092C84.5293 83.3311 85.3818 83.542 86.3838 83.542C87.6846 83.542 88.7568 83.252 89.6006 82.6719C90.4443 82.0742 91.0859 81.2568 91.5254 80.2197C91.9824 79.1826 92.2461 77.9873 92.3164 76.6338V73.1797C92.2637 72.0723 92.1055 71.0791 91.8418 70.2002C91.5957 69.3037 91.2266 68.5391 90.7344 67.9062C90.2598 67.2734 89.6621 66.7812 88.9414 66.4297C88.2383 66.0781 87.4033 65.9023 86.4365 65.9023C85.4521 65.9023 84.6084 66.1309 83.9053 66.5879C83.2021 67.0273 82.6309 67.6338 82.1914 68.4072C81.7695 69.1807 81.4531 70.0947 81.2422 71.1494C81.0488 72.1865 80.9521 73.3115 80.9521 74.5244Z" fill="white"/>
</svg>
