<svg width="140" height="140" viewBox="0 0 140 140" fill="none" xmlns="http://www.w3.org/2000/svg">
<path fill-rule="evenodd" clip-rule="evenodd" d="M26 15C19.9249 15 15 19.9249 15 26V114C15 120.075 19.9249 125 26 125H114C120.075 125 125 120.075 125 114V26C125 19.9249 120.075 15 114 15H26ZM58.6636 75.5151V95.5439H72.0161C76.0991 95.5439 79.0418 94.6244 80.8442 92.7852C82.6834 90.946 83.603 88.6838 83.603 85.9985C83.603 83.8283 83.2352 81.9707 82.4995 80.4258C81.7638 78.8441 80.6051 77.6302 79.0234 76.7842C77.4417 75.9382 75.3451 75.5151 72.7334 75.5151H58.6636ZM88.7399 68.7923C89.3575 68.538 89.9442 68.2592 90.5 67.9561C93.7738 66.1536 96.1463 63.8363 97.6177 61.0039C99.089 58.1348 99.8247 55.0633 99.8247 51.7896C99.8247 44.2856 97.1211 38.7313 91.7139 35.1265C86.3434 31.4849 78.8763 29.6641 69.3125 29.6641H40.6763V110H47.5181H58.6636H72.0161C81.5431 110 88.8447 108.014 93.9209 104.041C98.9971 100.032 101.535 94.091 101.535 86.2192C101.535 83.0926 100.855 80.1131 99.4937 77.2808C98.1327 74.4484 95.9256 72.1678 92.8726 70.439C91.6557 69.7352 90.2782 69.1864 88.7399 68.7923ZM69.2573 63.1006C73.6346 63.1006 76.8348 62.3097 78.8579 60.728C80.881 59.1463 81.8926 56.8473 81.8926 53.8311C81.8926 50.3734 80.881 47.9089 78.8579 46.4375C76.8716 44.9294 73.6898 44.1753 69.3125 44.1753H58.6636V63.1006H69.2573Z" fill="#673AB7"/>
</svg>
