<svg width="140" height="140" viewBox="0 0 140 140" fill="none" xmlns="http://www.w3.org/2000/svg">
<path d="M50.463 52C45.84 52 41.3745 50.1563 38.1055 46.8744C34.8365 43.5925 33 39.1413 33 34.5C33 29.8587 34.8365 25.4075 38.1055 22.1256C41.3745 18.8437 46.4722 17 51.0952 17V24.3546C48.4151 24.3546 45.1806 25.4234 43.2855 27.3261C41.3903 29.2287 40.3256 31.8093 40.3256 34.5C40.3256 37.1907 41.3903 39.7713 43.2855 41.6739C45.1806 43.5766 47.7829 44.6454 50.463 44.6454V52Z" fill="#FF7A00"/>
<path d="M51.0952 24.3546V17L71 17V52H50.463V44.6454H64.3762V24.3546H51.0952Z" fill="#FF7A00"/>
<path d="M90.8537 52C95.355 52 99.8459 50.1563 103.029 46.8744C106.212 43.5925 108 39.1413 108 34.5C108 29.8587 106.212 25.4075 103.029 22.1256C99.8459 18.8437 95.355 17 90.8537 17V24.3546C93.4633 24.3546 96.1399 25.4234 97.9852 27.3261C99.8305 29.2287 100.867 31.8093 100.867 34.5C100.867 37.1907 99.8305 39.7713 97.9852 41.6739C96.1399 43.5766 93.4633 44.6454 90.8537 44.6454V52Z" fill="#FFA680"/>
<path d="M90.8537 24.3546V17H71V52H90.8537V44.6454H77.4495V24.3546H90.8537Z" fill="#FFA680"/>
<path d="M106 69.5C106 79.165 98.165 87 88.5 87C78.835 87 71 79.165 71 69.5C71 59.835 78.835 52 88.5 52C98.165 52 106 59.835 106 69.5ZM78.3546 69.5C78.3546 75.1032 82.8968 79.6454 88.5 79.6454C94.1032 79.6454 98.6454 75.1032 98.6454 69.5C98.6454 63.8968 94.1032 59.3546 88.5 59.3546C82.8968 59.3546 78.3546 63.8968 78.3546 69.5Z" fill="#00D1FF"/>
<path d="M50.4312 86C45.8082 86 41.3745 84.2089 38.1055 81.0208C34.8365 77.8327 33 73.5087 33 69C33 64.4913 34.8365 60.1673 38.1055 56.9792C41.3745 53.7911 45.8082 52 50.4312 52V59.1444C47.751 59.1444 45.1806 60.1828 43.2855 62.0311C41.3903 63.8793 40.3256 66.3861 40.3256 69C40.3256 71.6139 41.3903 74.1207 43.2855 75.9689C45.1806 77.8172 47.751 78.8556 50.4312 78.8556L50.4312 86Z" fill="#CC00FF"/>
<path d="M50.4312 59.1444V52H71V86H50.4312L50.4312 78.8556H64.3761V59.1444H50.4312Z" fill="#CC00FF"/>
<path d="M71 104.5C71 108.159 69.915 111.736 67.8822 114.778C65.8494 117.82 62.9601 120.192 59.5796 121.592C56.1992 122.992 52.4795 123.358 48.8908 122.645C45.3022 121.931 42.0058 120.169 39.4185 117.581C36.8313 114.994 35.0693 111.698 34.3555 108.109C33.6417 104.521 34.008 100.801 35.4082 97.4204C36.8085 94.0399 39.1796 91.1506 42.222 89.1178C45.2643 87.085 48.841 86 52.5 86V93.7748C50.3788 93.7748 48.3052 94.4038 46.5414 95.5823C44.7777 96.7608 43.403 98.4359 42.5912 100.396C41.7795 102.355 41.5671 104.512 41.9809 106.592C42.3947 108.673 43.4162 110.584 44.9162 112.084C46.4161 113.584 48.3271 114.605 50.4076 115.019C52.4881 115.433 54.6446 115.221 56.6044 114.409C58.5641 113.597 60.2392 112.222 61.4177 110.459C62.5962 108.695 63.2252 106.621 63.2252 104.5H71Z" fill="#00FFB2"/>
<path d="M52.5 93.7748V86H71V104.5H63.2252V93.7748H52.5Z" fill="#00FFB2"/>
</svg>
