<svg width="140" height="140" viewBox="0 0 140 140" fill="none" xmlns="http://www.w3.org/2000/svg">
<mask id="path-1-inside-1_1_2" fill="white">
<rect x="14" y="14" width="112" height="112" rx="5"/>
</mask>
<rect x="14" y="14" width="112" height="112" rx="5" stroke="#FAFF06" stroke-width="20" mask="url(#path-1-inside-1_1_2)"/>
<path d="M66.7202 71.6364H74.3196V96.9915C74.3196 99.3352 73.7929 101.371 72.7393 103.099C71.6977 104.828 70.2476 106.159 68.3892 107.094C66.5308 108.03 64.3705 108.497 61.9084 108.497C59.7185 108.497 57.7299 108.112 55.9425 107.343C54.1669 106.562 52.7583 105.378 51.7166 103.792C50.675 102.194 50.16 100.187 50.1719 97.7727H57.8246C57.8482 98.7315 58.0436 99.5542 58.4105 100.241C58.7893 100.915 59.3042 101.436 59.9553 101.803C60.6181 102.158 61.3994 102.336 62.299 102.336C63.246 102.336 64.045 102.135 64.696 101.732C65.3589 101.318 65.862 100.714 66.2053 99.9212C66.5485 99.1281 66.7202 98.1515 66.7202 96.9915V71.6364ZM100.403 82.0945C100.261 80.6622 99.651 79.5495 98.5739 78.7564C97.4967 77.9633 96.0348 77.5668 94.1882 77.5668C92.9335 77.5668 91.8741 77.7443 91.0099 78.0994C90.1458 78.4427 89.483 78.9221 89.0213 79.5376C88.5715 80.1532 88.3466 80.8516 88.3466 81.6328C88.3229 82.2839 88.459 82.852 88.755 83.3374C89.0627 83.8227 89.483 84.2429 90.0156 84.598C90.5483 84.9413 91.1638 85.2431 91.8622 85.5036C92.5606 85.7521 93.3063 85.9652 94.0994 86.1428L97.3665 86.924C98.9527 87.2791 100.409 87.7526 101.734 88.3445C103.06 88.9363 104.208 89.6643 105.179 90.5284C106.15 91.3925 106.901 92.4105 107.434 93.5824C107.978 94.7543 108.257 96.0978 108.268 97.6129C108.257 99.8383 107.688 101.768 106.564 103.401C105.451 105.023 103.841 106.284 101.734 107.183C99.6392 108.071 97.112 108.515 94.1527 108.515C91.2171 108.515 88.6603 108.065 86.4822 107.165C84.3161 106.266 82.6233 104.934 81.4041 103.17C80.1967 101.395 79.5634 99.1991 79.5043 96.5831H86.9439C87.0268 97.8023 87.3759 98.8203 87.9915 99.6371C88.6188 100.442 89.4534 101.052 90.495 101.466C91.5485 101.868 92.7382 102.07 94.0639 102.07C95.366 102.07 96.4964 101.88 97.4553 101.501C98.4259 101.123 99.1776 100.596 99.7102 99.9212C100.243 99.2464 100.509 98.4711 100.509 97.5952C100.509 96.7784 100.267 96.0919 99.7812 95.5355C99.3078 94.9792 98.6094 94.5057 97.6861 94.1151C96.7746 93.7244 95.656 93.3693 94.3303 93.0497L90.3707 92.0554C87.3049 91.3097 84.8842 90.1437 83.1087 88.5575C81.3331 86.9714 80.4512 84.8348 80.4631 82.1477C80.4512 79.946 81.0372 78.0225 82.2209 76.3771C83.4164 74.7318 85.0559 73.4474 87.1392 72.5241C89.2225 71.6009 91.59 71.1392 94.2415 71.1392C96.9403 71.1392 99.2959 71.6009 101.308 72.5241C103.332 73.4474 104.907 74.7318 106.031 76.3771C107.156 78.0225 107.736 79.9283 107.771 82.0945H100.403Z" fill="#FAFF06"/>
<path d="M66.7202 71.6364V71.1364H66.2202V71.6364H66.7202ZM74.3196 71.6364H74.8196V71.1364H74.3196V71.6364ZM72.7393 103.099L72.3124 102.839L72.3111 102.841L72.7393 103.099ZM68.3892 107.094L68.1645 106.648L68.1645 106.648L68.3892 107.094ZM55.9425 107.343L55.7411 107.801L55.7448 107.802L55.9425 107.343ZM51.7166 103.792L51.2977 104.065L51.2987 104.066L51.7166 103.792ZM50.1719 97.7727V97.2727H49.6743L49.6719 97.7703L50.1719 97.7727ZM57.8246 97.7727L58.3244 97.7604L58.3124 97.2727H57.8246V97.7727ZM58.4105 100.241L57.9695 100.477L57.9745 100.486L58.4105 100.241ZM59.9553 101.803L59.7097 102.239L59.7191 102.244L59.9553 101.803ZM64.696 101.732L64.9589 102.158L64.961 102.156L64.696 101.732ZM66.2053 99.9212L66.6641 100.12L66.6641 100.12L66.2053 99.9212ZM66.7202 72.1364H74.3196V71.1364H66.7202V72.1364ZM73.8196 71.6364V96.9915H74.8196V71.6364H73.8196ZM73.8196 96.9915C73.8196 99.2582 73.311 101.201 72.3124 102.839L73.1663 103.36C74.2747 101.541 74.8196 99.4123 74.8196 96.9915H73.8196ZM72.3111 102.841C71.3197 104.486 69.9414 105.754 68.1645 106.648L68.6139 107.541C70.5539 106.565 72.0757 105.169 73.1676 103.358L72.3111 102.841ZM68.1645 106.648C66.3875 107.542 64.3067 107.997 61.9084 107.997V108.997C64.4343 108.997 66.6741 108.517 68.6139 107.541L68.1645 106.648ZM61.9084 107.997C59.778 107.997 57.8578 107.623 56.1402 106.884L55.7448 107.802C57.602 108.602 59.659 108.997 61.9084 108.997V107.997ZM56.1438 106.885C54.4546 106.142 53.122 105.021 52.1346 103.517L51.2987 104.066C52.3946 105.735 53.8793 106.981 55.7411 107.801L56.1438 106.885ZM52.1355 103.519C51.1598 102.022 50.6604 100.118 50.6719 97.7752L49.6719 97.7703C49.6597 100.257 50.1901 102.366 51.2978 104.065L52.1355 103.519ZM50.1719 98.2727H57.8246V97.2727H50.1719V98.2727ZM57.3247 97.7851C57.3499 98.8041 57.5583 99.7069 57.9695 100.476L58.8515 100.005C58.5289 99.4015 58.3466 98.6589 58.3244 97.7604L57.3247 97.7851ZM57.9745 100.486C58.3965 101.237 58.976 101.825 59.7097 102.239L60.2008 101.368C59.6324 101.047 59.1821 100.594 58.8465 99.996L57.9745 100.486ZM59.7191 102.244C60.4676 102.645 61.3331 102.836 62.299 102.836V101.836C61.4657 101.836 60.7686 101.672 60.1914 101.363L59.7191 102.244ZM62.299 102.836C63.3169 102.836 64.2121 102.619 64.9589 102.158L64.4331 101.307C63.8779 101.65 63.1751 101.836 62.299 101.836V102.836ZM64.961 102.156C65.7189 101.683 66.285 100.996 66.6641 100.12L65.7464 99.7226C65.439 100.433 64.9989 100.953 64.431 101.308L64.961 102.156ZM66.6641 100.12C67.0421 99.2465 67.2202 98.1977 67.2202 96.9915H66.2202C66.2202 98.1053 66.0549 99.0097 65.7464 99.7226L66.6641 100.12ZM67.2202 96.9915V71.6364H66.2202V96.9915H67.2202ZM100.403 82.0945L99.9051 82.1438L99.9498 82.5945H100.403V82.0945ZM91.0099 78.0994L91.1946 78.5641L91.2 78.5619L91.0099 78.0994ZM89.0213 79.5376L88.6213 79.2376L88.6176 79.2426L89.0213 79.5376ZM88.3466 81.6328L88.8463 81.651L88.8466 81.6419V81.6328H88.3466ZM88.755 83.3374L88.328 83.5977L88.3327 83.6051L88.755 83.3374ZM90.0156 84.598L89.7382 85.0141L89.7448 85.0183L90.0156 84.598ZM91.8622 85.5036L91.6875 85.9721L91.6946 85.9746L91.8622 85.5036ZM94.0994 86.1428L94.2157 85.6564L94.2087 85.6548L94.0994 86.1428ZM97.3665 86.924L97.2502 87.4103L97.2572 87.4119L97.3665 86.924ZM101.734 88.3445L101.531 88.801L101.531 88.801L101.734 88.3445ZM105.179 90.5284L105.511 90.155L105.511 90.155L105.179 90.5284ZM107.434 93.5824L106.979 93.7893L106.981 93.7931L107.434 93.5824ZM108.268 97.6129L108.769 97.6156L108.768 97.609L108.268 97.6129ZM106.564 103.401L106.152 103.118L106.152 103.118L106.564 103.401ZM101.734 107.183L101.929 107.644L101.931 107.643L101.734 107.183ZM86.4822 107.165L86.2905 107.627L86.2914 107.628L86.4822 107.165ZM81.4041 103.17L80.9906 103.452L80.9928 103.455L81.4041 103.17ZM79.5043 96.5831V96.0831H78.9928L79.0044 96.5944L79.5043 96.5831ZM86.9439 96.5831L87.4427 96.5492L87.4111 96.0831H86.9439V96.5831ZM87.9915 99.6371L87.5921 99.938L87.5971 99.9444L87.9915 99.6371ZM90.495 101.466L90.3102 101.931L90.3166 101.933L90.495 101.466ZM97.4553 101.501L97.2735 101.036L97.2715 101.036L97.4553 101.501ZM99.7102 99.9212L100.103 100.231L100.103 100.231L99.7102 99.9212ZM99.7812 95.5355L99.4005 95.8596L99.4045 95.8642L99.7812 95.5355ZM97.6861 94.1151L97.4891 94.5746L97.4913 94.5755L97.6861 94.1151ZM94.3303 93.0497L94.2085 93.5347L94.2131 93.5358L94.3303 93.0497ZM90.3707 92.0554L90.4925 91.5704L90.4889 91.5696L90.3707 92.0554ZM83.1087 88.5575L82.7756 88.9304L82.7756 88.9304L83.1087 88.5575ZM80.4631 82.1477L80.9631 82.1499L80.9631 82.145L80.4631 82.1477ZM82.2209 76.3771L81.8164 76.0832L81.815 76.0851L82.2209 76.3771ZM101.308 72.5241L101.1 72.9786L101.101 72.9791L101.308 72.5241ZM106.031 76.3771L105.618 76.6593L105.618 76.6593L106.031 76.3771ZM107.771 82.0945V82.5945H108.28L108.271 82.0863L107.771 82.0945ZM100.9 82.0451C100.745 80.4839 100.071 79.2377 98.8703 78.3538L98.2774 79.159C99.2312 79.8612 99.7759 80.8404 99.9051 82.1438L100.9 82.0451ZM98.8703 78.3538C97.68 77.4774 96.1018 77.0668 94.1882 77.0668V78.0668C95.9679 78.0668 97.3134 78.4493 98.2774 79.159L98.8703 78.3538ZM94.1882 77.0668C92.8894 77.0668 91.7611 77.2501 90.8199 77.637L91.2 78.5619C91.987 78.2385 92.9776 78.0668 94.1882 78.0668V77.0668ZM90.8253 77.6348C89.8936 78.0049 89.1487 78.5344 88.6213 79.2376L89.4213 79.8376C89.8172 79.3098 90.3981 78.8805 91.1945 78.5641L90.8253 77.6348ZM88.6176 79.2426C88.1036 79.946 87.8466 80.7483 87.8466 81.6328H88.8466C88.8466 80.9548 89.0394 80.3603 89.425 79.8326L88.6176 79.2426ZM87.8469 81.6146C87.8202 82.3489 87.974 83.0169 88.3281 83.5977L89.1819 83.0771C88.9441 82.6872 88.8256 82.2188 88.8463 81.651L87.8469 81.6146ZM88.3327 83.6051C88.682 84.1558 89.1541 84.6246 89.7383 85.014L90.293 84.182C89.8118 83.8612 89.4435 83.4895 89.1772 83.0696L88.3327 83.6051ZM89.7448 85.0183C90.3124 85.3841 90.9612 85.7012 91.6875 85.972L92.0369 85.0351C91.3665 84.7851 90.7842 84.4985 90.2865 84.1777L89.7448 85.0183ZM91.6946 85.9746C92.4138 86.2306 93.1792 86.4491 93.9902 86.6307L94.2087 85.6548C93.4335 85.4813 92.7074 85.2737 92.0299 85.0325L91.6946 85.9746ZM93.9831 86.629L97.2502 87.4103L97.4828 86.4377L94.2157 85.6565L93.9831 86.629ZM97.2572 87.4119C98.8147 87.7606 100.239 88.2242 101.531 88.801L101.938 87.8879C100.579 87.281 99.0906 86.7976 97.4757 86.4361L97.2572 87.4119ZM101.531 88.801C102.815 89.3744 103.918 90.0756 104.847 90.9019L105.511 90.155C104.498 89.253 103.305 88.4983 101.938 87.8879L101.531 88.801ZM104.847 90.9019C105.766 91.7201 106.475 92.6815 106.979 93.7893L107.889 93.3755C107.327 92.1395 106.534 91.065 105.511 90.155L104.847 90.9019ZM106.981 93.7931C107.49 94.8899 107.757 96.1609 107.768 97.6168L108.768 97.609C108.756 96.0346 108.467 94.6186 107.887 93.3717L106.981 93.7931ZM107.768 97.6103C107.757 99.748 107.213 101.577 106.152 103.118L106.976 103.685C108.164 101.959 108.756 99.9286 108.768 97.6156L107.768 97.6103ZM106.152 103.118C105.101 104.65 103.572 105.855 101.538 106.723L101.931 107.643C104.11 106.712 105.801 105.396 106.976 103.684L106.152 103.118ZM101.539 106.723C99.5214 107.578 97.0642 108.015 94.1527 108.015V109.015C97.1598 109.015 99.757 108.564 101.929 107.644L101.539 106.723ZM94.1527 108.015C91.267 108.015 88.7777 107.573 86.6731 106.703L86.2914 107.628C88.5428 108.558 91.1672 109.015 94.1527 109.015V108.015ZM86.674 106.704C84.5879 105.837 82.9749 104.563 81.8154 102.886L80.9928 103.455C82.2718 105.305 84.0442 106.694 86.2905 107.627L86.674 106.704ZM81.8176 102.889C80.6752 101.209 80.0616 99.1126 80.0041 96.5718L79.0044 96.5944C79.0653 99.2856 79.7182 101.58 80.9907 103.452L81.8176 102.889ZM79.5043 97.0831H86.9439V96.0831H79.5043V97.0831ZM86.445 96.617C86.5332 97.9139 86.9077 99.0298 87.5922 99.938L88.3908 99.3361C87.8442 98.6109 87.5203 97.6908 87.4427 96.5492L86.445 96.617ZM87.5971 99.9444C88.2844 100.826 89.1944 101.487 90.3102 101.931L90.6798 101.001C89.7124 100.617 88.9533 100.058 88.3858 99.3297L87.5971 99.9444ZM90.3166 101.933C91.4361 102.361 92.6877 102.57 94.0639 102.57V101.57C92.7887 101.57 91.6609 101.376 90.6735 100.999L90.3166 101.933ZM94.0639 102.57C95.413 102.57 96.6085 102.374 97.639 101.966L97.2715 101.036C96.3844 101.387 95.319 101.57 94.0639 101.57V102.57ZM97.637 101.967C98.673 101.563 99.5043 100.989 100.103 100.231L99.3178 99.6113C98.8508 100.203 98.1788 100.682 97.2735 101.036L97.637 101.967ZM100.103 100.231C100.706 99.4662 101.009 98.5812 101.009 97.5952H100.009C100.009 98.361 99.7794 99.0267 99.3178 99.6113L100.103 100.231ZM101.009 97.5952C101.009 96.6714 100.731 95.8641 100.158 95.2068L99.4045 95.8642C99.8017 96.3196 100.009 96.8855 100.009 97.5952H101.009ZM100.162 95.2115C99.6228 94.5779 98.8507 94.0649 97.8809 93.6546L97.4913 94.5755C98.3681 94.9465 98.9927 95.3804 99.4005 95.8596L100.162 95.2115ZM97.883 93.6555C96.9382 93.2506 95.7911 92.8876 94.4474 92.5636L94.2131 93.5358C95.5209 93.8511 96.611 94.1983 97.4891 94.5746L97.883 93.6555ZM94.452 92.5648L90.4925 91.5705L90.249 92.5403L94.2085 93.5347L94.452 92.5648ZM90.4889 91.5696C87.4779 90.8372 85.1394 89.7012 83.4418 88.1846L82.7756 88.9304C84.6291 90.5862 87.1319 91.7822 90.2526 92.5412L90.4889 91.5696ZM83.4418 88.1846C81.7873 86.7067 80.9518 84.7143 80.9631 82.1499L79.9631 82.1455C79.9507 84.9552 80.8789 87.236 82.7756 88.9304L83.4418 88.1846ZM80.9631 82.145C80.9517 80.0394 81.5102 78.2212 82.6268 76.6691L81.815 76.0851C80.5642 77.8238 79.9507 79.8526 79.9631 82.1504L80.9631 82.145ZM82.6254 76.671C83.7631 75.1052 85.329 73.8733 87.3418 72.9813L86.9366 72.067C84.7827 73.0216 83.0697 74.3583 81.8164 76.0832L82.6254 76.671ZM87.3418 72.9813C89.3517 72.0905 91.6484 71.6392 94.2415 71.6392V70.6392C91.5315 70.6392 89.0933 71.1112 86.9366 72.067L87.3418 72.9813ZM94.2415 71.6392C96.8838 71.6392 99.1655 72.0911 101.1 72.9786L101.517 72.0697C99.4263 71.1106 96.9969 70.6392 94.2415 70.6392V71.6392ZM101.101 72.9791C103.052 73.8691 104.551 75.0976 105.618 76.6593L106.444 76.095C105.262 74.3659 103.613 73.0258 101.516 72.0692L101.101 72.9791ZM105.618 76.6593C106.683 78.2168 107.237 80.0254 107.271 82.1027L108.271 82.0863C108.234 79.8311 107.629 77.8282 106.444 76.095L105.618 76.6593ZM107.771 81.5945H100.403V82.5945H107.771V81.5945Z" fill="#9F9F9F"/>
</svg>
