<svg width="140" height="140" viewBox="0 0 140 140" fill="none" xmlns="http://www.w3.org/2000/svg">
<path d="M69.9999 126.243C41.3182 114.831 27.4846 93.4819 21.8392 72.7072C18.9648 62.1298 18.2226 51.7125 18.7608 42.8849C19.2782 34.3996 20.9608 27.646 22.8642 23.6912C28.2807 19.1055 35.1135 16.6688 42.9725 15.3363C50.1973 14.1114 57.9837 13.8605 66.0435 13.6007C67.0411 13.5686 68.0429 13.5363 69.0483 13.502C70.0998 13.5379 71.1507 13.5715 72.2 13.6051C80.261 13.8633 88.2279 14.1184 95.6404 15.339C103.771 16.6779 110.825 19.1246 116.233 23.6927C118.149 27.6631 119.883 34.4309 120.479 42.917C121.099 51.7486 120.465 62.1658 117.7 72.7396C112.272 93.5025 98.6628 114.836 69.9999 126.243Z" stroke="#4CAF50" stroke-width="7"/>
<path d="M70 129.946C39.2795 118.201 24.4724 95.5533 18.5099 73.6119C15.5279 62.6385 14.7583 51.8419 15.3172 42.6749C15.8759 33.5124 17.7614 25.9821 20.0883 21.5313C26.2463 16.0815 33.9585 13.3654 42.3958 11.9349C49.8689 10.6678 57.9065 10.4098 65.9326 10.1523C66.9718 10.1189 68.0107 10.0856 69.0483 10.05C70.1287 10.087 71.2143 10.1217 72.3032 10.1564C80.3359 10.4126 88.5476 10.6746 96.201 11.9349C104.889 13.3655 112.85 16.0817 119.008 21.5313C121.335 25.9824 123.277 33.5129 123.921 42.6754C124.564 51.8424 123.907 62.639 121.038 73.6124C115.301 95.5536 100.72 118.201 70 129.946Z" stroke="black" stroke-width="0.1"/>
<path d="M67 109V99.5L70 92.5L73 99.5V109H67Z" fill="#DCEDC8" stroke="#DCEDC8" stroke-width="0.2"/>
<path d="M70.1691 92.5V31C82.8705 44.7332 87.1723 54.2601 87.1691 72C84.749 87.7669 79.9543 94.8426 73.1691 99.5L70.1691 92.5Z" fill="#4CAF50"/>
<path d="M70.1691 31C70.7549 55.0172 69.5833 68.4828 70.1691 92.5M70.1691 31V92.5M70.1691 31C82.8705 44.7332 87.1723 54.2601 87.1691 72C84.749 87.7669 79.9543 94.8426 73.1691 99.5L70.1691 92.5" stroke="#4CAF50" stroke-width="0.2"/>
<path d="M52 72C54.4201 87.7669 60.2148 94.8426 67 99.5L70 93V31C57.2986 44.7332 51.9968 54.2601 52 72Z" fill="#81C784" stroke="#81C784" stroke-width="0.2"/>
</svg>
