<svg width="140" height="140" viewBox="0 0 140 140" fill="none" xmlns="http://www.w3.org/2000/svg">
<rect x="26" y="26" width="87" height="87" fill="#07202E"/>
<path fill-rule="evenodd" clip-rule="evenodd" d="M30 18C23.3726 18 18 23.3726 18 30V110C18 116.627 23.3726 122 30 122H110C116.627 122 122 116.627 122 110V30C122 23.3726 116.627 18 110 18H30ZM112.545 26.404H26.404V112.545H112.545V26.404Z" fill="#03A9F4"/>
<path d="M56.3779 75.3154H46.5957V69.1455H56.3779C57.8896 69.1455 59.1201 68.8994 60.0693 68.4072C61.0186 67.8975 61.7129 67.1943 62.1523 66.2979C62.5918 65.4014 62.8115 64.3906 62.8115 63.2656C62.8115 62.123 62.5918 61.0596 62.1523 60.0752C61.7129 59.0908 61.0186 58.2998 60.0693 57.7021C59.1201 57.1045 57.8896 56.8057 56.3779 56.8057H49.3379V89H41.4277V50.6094H56.3779C59.3838 50.6094 61.959 51.1543 64.1035 52.2441C66.2656 53.3164 67.918 54.8018 69.0605 56.7002C70.2031 58.5986 70.7744 60.7695 70.7744 63.2129C70.7744 65.6914 70.2031 67.8359 69.0605 69.6465C67.918 71.457 66.2656 72.8545 64.1035 73.8389C61.959 74.8232 59.3838 75.3154 56.3779 75.3154ZM91.1826 81.1162C91.1826 80.5713 91.0244 80.0791 90.708 79.6396C90.3916 79.2002 89.8027 78.7959 88.9414 78.4268C88.0977 78.04 86.876 77.6885 85.2764 77.3721C83.835 77.0557 82.4902 76.6602 81.2422 76.1855C80.0117 75.6934 78.9395 75.1045 78.0254 74.4189C77.1289 73.7334 76.4258 72.9248 75.916 71.9932C75.4062 71.0439 75.1514 69.9629 75.1514 68.75C75.1514 67.5547 75.4062 66.4297 75.916 65.375C76.4434 64.3203 77.1904 63.3887 78.1572 62.5801C79.1416 61.7539 80.3369 61.1123 81.7432 60.6553C83.167 60.1807 84.7666 59.9434 86.542 59.9434C89.0205 59.9434 91.1475 60.3389 92.9229 61.1299C94.7158 61.9209 96.0869 63.0107 97.0361 64.3994C98.0029 65.7705 98.4863 67.335 98.4863 69.0928H90.8926C90.8926 68.3545 90.7344 67.6953 90.418 67.1152C90.1191 66.5176 89.6445 66.0518 88.9941 65.7178C88.3613 65.3662 87.5352 65.1904 86.5156 65.1904C85.6719 65.1904 84.9424 65.3398 84.3271 65.6387C83.7119 65.9199 83.2373 66.3066 82.9033 66.7988C82.5869 67.2734 82.4287 67.8008 82.4287 68.3809C82.4287 68.8203 82.5166 69.2158 82.6924 69.5674C82.8857 69.9014 83.1934 70.209 83.6152 70.4902C84.0371 70.7715 84.582 71.0352 85.25 71.2812C85.9355 71.5098 86.7793 71.7207 87.7812 71.9141C89.8379 72.3359 91.6748 72.8896 93.292 73.5752C94.9092 74.2432 96.1924 75.1572 97.1416 76.3174C98.0908 77.46 98.5654 78.9629 98.5654 80.8262C98.5654 82.0918 98.2842 83.252 97.7217 84.3066C97.1592 85.3613 96.3506 86.2842 95.2959 87.0752C94.2412 87.8486 92.9756 88.4551 91.499 88.8945C90.04 89.3164 88.3965 89.5273 86.5684 89.5273C83.9141 89.5273 81.6641 89.0527 79.8184 88.1035C77.9902 87.1543 76.6016 85.9502 75.6523 84.4912C74.7207 83.0146 74.2549 81.5029 74.2549 79.9561H81.4531C81.4883 80.9932 81.752 81.8281 82.2441 82.4609C82.7539 83.0938 83.3955 83.5508 84.1689 83.832C84.96 84.1133 85.8125 84.2539 86.7266 84.2539C87.7109 84.2539 88.5283 84.1221 89.1787 83.8584C89.8291 83.5771 90.3213 83.208 90.6553 82.751C91.0068 82.2764 91.1826 81.7314 91.1826 81.1162Z" fill="white"/>
</svg>
